<mxfile host="app.diagrams.net" modified="2023-12-07T03:33:24.966Z" agent="Mozilla/5.0 (Windows NT 10.0; Win64; x64) AppleWebKit/537.36 (KHTML, like Gecko) Chrome/119.0.0.0 Safari/537.36" etag="kH4qY2ocuP_gJVqAYi-y" version="22.1.7" type="github">
  <diagram id="C5RBs43oDa-KdzZeNtuy" name="Page-1">
    <mxGraphModel dx="1434" dy="758" grid="1" gridSize="10" guides="1" tooltips="1" connect="1" arrows="1" fold="1" page="1" pageScale="1" pageWidth="827" pageHeight="1169" math="0" shadow="0">
      <root>
        <mxCell id="WIyWlLk6GJQsqaUBKTNV-0" />
        <mxCell id="WIyWlLk6GJQsqaUBKTNV-1" parent="WIyWlLk6GJQsqaUBKTNV-0" />
        <mxCell id="zkfFHV4jXpPFQw0GAbJ--0" value="Sphere" style="swimlane;fontStyle=0;align=center;verticalAlign=top;childLayout=stackLayout;horizontal=1;startSize=26;horizontalStack=0;resizeParent=1;resizeLast=0;collapsible=1;marginBottom=0;rounded=0;shadow=0;strokeWidth=1;" parent="WIyWlLk6GJQsqaUBKTNV-1" vertex="1">
          <mxGeometry x="273" y="90" width="287" height="190" as="geometry">
            <mxRectangle x="273" y="90" width="160" height="26" as="alternateBounds" />
          </mxGeometry>
        </mxCell>
        <mxCell id="zkfFHV4jXpPFQw0GAbJ--1" value="- radius: double" style="text;align=left;verticalAlign=top;spacingLeft=4;spacingRight=4;overflow=hidden;rotatable=0;points=[[0,0.5],[1,0.5]];portConstraint=eastwest;" parent="zkfFHV4jXpPFQw0GAbJ--0" vertex="1">
          <mxGeometry y="26" width="287" height="34" as="geometry" />
        </mxCell>
        <mxCell id="zkfFHV4jXpPFQw0GAbJ--2" value="- theCartesianCoordinates: array" style="text;align=left;verticalAlign=top;spacingLeft=4;spacingRight=4;overflow=hidden;rotatable=0;points=[[0,0.5],[1,0.5]];portConstraint=eastwest;rounded=0;shadow=0;html=0;" parent="zkfFHV4jXpPFQw0GAbJ--0" vertex="1">
          <mxGeometry y="60" width="287" height="26" as="geometry" />
        </mxCell>
        <mxCell id="zkfFHV4jXpPFQw0GAbJ--3" value="- count : int" style="text;align=left;verticalAlign=top;spacingLeft=4;spacingRight=4;overflow=hidden;rotatable=0;points=[[0,0.5],[1,0.5]];portConstraint=eastwest;rounded=0;shadow=0;html=0;" parent="zkfFHV4jXpPFQw0GAbJ--0" vertex="1">
          <mxGeometry y="86" width="287" height="26" as="geometry" />
        </mxCell>
        <mxCell id="zkfFHV4jXpPFQw0GAbJ--4" value="" style="line;html=1;strokeWidth=1;align=left;verticalAlign=middle;spacingTop=-1;spacingLeft=3;spacingRight=3;rotatable=0;labelPosition=right;points=[];portConstraint=eastwest;" parent="zkfFHV4jXpPFQw0GAbJ--0" vertex="1">
          <mxGeometry y="112" width="287" height="8" as="geometry" />
        </mxCell>
        <mxCell id="zkfFHV4jXpPFQw0GAbJ--5" value="+ countInstance (): int" style="text;align=left;verticalAlign=top;spacingLeft=4;spacingRight=4;overflow=hidden;rotatable=0;points=[[0,0.5],[1,0.5]];portConstraint=eastwest;" parent="zkfFHV4jXpPFQw0GAbJ--0" vertex="1">
          <mxGeometry y="120" width="287" height="20" as="geometry" />
        </mxCell>
        <mxCell id="V3xf2YxD_hksyyZb2QnP-2" value="+ calculateSurfaceArea (r: radius) : double" style="text;align=left;verticalAlign=top;spacingLeft=4;spacingRight=4;overflow=hidden;rotatable=0;points=[[0,0.5],[1,0.5]];portConstraint=eastwest;" vertex="1" parent="zkfFHV4jXpPFQw0GAbJ--0">
          <mxGeometry y="140" width="287" height="20" as="geometry" />
        </mxCell>
        <mxCell id="V3xf2YxD_hksyyZb2QnP-1" value="+ calculateVolume (r:radius): double" style="text;align=left;verticalAlign=top;spacingLeft=4;spacingRight=4;overflow=hidden;rotatable=0;points=[[0,0.5],[1,0.5]];portConstraint=eastwest;" vertex="1" parent="zkfFHV4jXpPFQw0GAbJ--0">
          <mxGeometry y="160" width="287" height="20" as="geometry" />
        </mxCell>
        <mxCell id="V3xf2YxD_hksyyZb2QnP-6" value="Car" style="swimlane;fontStyle=1;align=center;verticalAlign=top;childLayout=stackLayout;horizontal=1;startSize=26;horizontalStack=0;resizeParent=1;resizeParentMax=0;resizeLast=0;collapsible=1;marginBottom=0;whiteSpace=wrap;html=1;" vertex="1" parent="WIyWlLk6GJQsqaUBKTNV-1">
          <mxGeometry x="273" y="360" width="310" height="410" as="geometry" />
        </mxCell>
        <mxCell id="V3xf2YxD_hksyyZb2QnP-7" value="- year: int&lt;br&gt;- make: String&lt;br&gt;- model: String&lt;br&gt;- bodyType: String&lt;br&gt;- transmission: String&lt;br&gt;- odometer: int&lt;br&gt;- engine: int&lt;br&gt;- WoFExpiryDate: String&lt;br&gt;- currentPrice: double" style="text;strokeColor=none;fillColor=none;align=left;verticalAlign=top;spacingLeft=4;spacingRight=4;overflow=hidden;rotatable=0;points=[[0,0.5],[1,0.5]];portConstraint=eastwest;whiteSpace=wrap;html=1;" vertex="1" parent="V3xf2YxD_hksyyZb2QnP-6">
          <mxGeometry y="26" width="310" height="144" as="geometry" />
        </mxCell>
        <mxCell id="V3xf2YxD_hksyyZb2QnP-8" value="" style="line;strokeWidth=1;fillColor=none;align=left;verticalAlign=middle;spacingTop=-1;spacingLeft=3;spacingRight=3;rotatable=0;labelPosition=right;points=[];portConstraint=eastwest;strokeColor=inherit;" vertex="1" parent="V3xf2YxD_hksyyZb2QnP-6">
          <mxGeometry y="170" width="310" height="8" as="geometry" />
        </mxCell>
        <mxCell id="V3xf2YxD_hksyyZb2QnP-14" value="Text" style="text;html=1;strokeColor=none;fillColor=none;align=center;verticalAlign=middle;whiteSpace=wrap;rounded=0;" vertex="1" parent="V3xf2YxD_hksyyZb2QnP-6">
          <mxGeometry y="178" width="310" height="30" as="geometry" />
        </mxCell>
        <mxCell id="V3xf2YxD_hksyyZb2QnP-9" value="+ getYear(int year): int&lt;br&gt;+ getMake(String make): String&lt;br style=&quot;border-color: var(--border-color);&quot;&gt;+ getModel(String model): String&lt;br style=&quot;border-color: var(--border-color);&quot;&gt;+ getBodyType(String bodyType): String&lt;br style=&quot;border-color: var(--border-color);&quot;&gt;+ getTansmission(String transmission): String&lt;br style=&quot;border-color: var(--border-color);&quot;&gt;+ getOdometer(int odometer): int&lt;br style=&quot;border-color: var(--border-color);&quot;&gt;+ getEngine(int engine): int&lt;br style=&quot;border-color: var(--border-color);&quot;&gt;+ getWoFExpiryDate(WoFExpiryDate): String&lt;br style=&quot;border-color: var(--border-color);&quot;&gt;+ getCurrentPrice(double currentPrice): double&lt;br&gt;+ setOdometer(int odometer): int&lt;br&gt;+ setWoFExpiryDate(String WoFExpiryDate): String&lt;br&gt;+ setPrice(double currentPrice): double" style="text;strokeColor=none;fillColor=none;align=left;verticalAlign=top;spacingLeft=4;spacingRight=4;overflow=hidden;rotatable=0;points=[[0,0.5],[1,0.5]];portConstraint=eastwest;whiteSpace=wrap;html=1;" vertex="1" parent="V3xf2YxD_hksyyZb2QnP-6">
          <mxGeometry y="208" width="310" height="202" as="geometry" />
        </mxCell>
        <mxCell id="V3xf2YxD_hksyyZb2QnP-12" value="ExerciseOne" style="text;html=1;strokeColor=none;fillColor=none;align=center;verticalAlign=middle;whiteSpace=wrap;rounded=0;" vertex="1" parent="WIyWlLk6GJQsqaUBKTNV-1">
          <mxGeometry x="386.5" y="50" width="60" height="30" as="geometry" />
        </mxCell>
        <mxCell id="V3xf2YxD_hksyyZb2QnP-13" value="ExerciseTwo" style="text;html=1;strokeColor=none;fillColor=none;align=center;verticalAlign=middle;whiteSpace=wrap;rounded=0;" vertex="1" parent="WIyWlLk6GJQsqaUBKTNV-1">
          <mxGeometry x="398" y="320" width="60" height="30" as="geometry" />
        </mxCell>
        <mxCell id="V3xf2YxD_hksyyZb2QnP-15" value="Exercise Three" style="text;html=1;strokeColor=none;fillColor=none;align=center;verticalAlign=middle;whiteSpace=wrap;rounded=0;" vertex="1" parent="WIyWlLk6GJQsqaUBKTNV-1">
          <mxGeometry x="367" y="810" width="122" height="30" as="geometry" />
        </mxCell>
        <mxCell id="V3xf2YxD_hksyyZb2QnP-25" value="Vehicle" style="swimlane;fontStyle=1;align=center;verticalAlign=top;childLayout=stackLayout;horizontal=1;startSize=26;horizontalStack=0;resizeParent=1;resizeParentMax=0;resizeLast=0;collapsible=1;marginBottom=0;whiteSpace=wrap;html=1;" vertex="1" parent="WIyWlLk6GJQsqaUBKTNV-1">
          <mxGeometry x="348" y="860" width="160" height="150" as="geometry" />
        </mxCell>
        <mxCell id="V3xf2YxD_hksyyZb2QnP-26" value="- name: String&lt;br&gt;- productionYear: int" style="text;strokeColor=none;fillColor=none;align=left;verticalAlign=top;spacingLeft=4;spacingRight=4;overflow=hidden;rotatable=0;points=[[0,0.5],[1,0.5]];portConstraint=eastwest;whiteSpace=wrap;html=1;" vertex="1" parent="V3xf2YxD_hksyyZb2QnP-25">
          <mxGeometry y="26" width="160" height="54" as="geometry" />
        </mxCell>
        <mxCell id="V3xf2YxD_hksyyZb2QnP-27" value="" style="line;strokeWidth=1;fillColor=none;align=left;verticalAlign=middle;spacingTop=-1;spacingLeft=3;spacingRight=3;rotatable=0;labelPosition=right;points=[];portConstraint=eastwest;strokeColor=inherit;" vertex="1" parent="V3xf2YxD_hksyyZb2QnP-25">
          <mxGeometry y="80" width="160" height="8" as="geometry" />
        </mxCell>
        <mxCell id="V3xf2YxD_hksyyZb2QnP-28" value="+ changeGear(): void&lt;br&gt;+ brake(): void&lt;br&gt;+ accelerate(): void" style="text;strokeColor=none;fillColor=none;align=left;verticalAlign=top;spacingLeft=4;spacingRight=4;overflow=hidden;rotatable=0;points=[[0,0.5],[1,0.5]];portConstraint=eastwest;whiteSpace=wrap;html=1;" vertex="1" parent="V3xf2YxD_hksyyZb2QnP-25">
          <mxGeometry y="88" width="160" height="62" as="geometry" />
        </mxCell>
        <mxCell id="V3xf2YxD_hksyyZb2QnP-54" style="edgeStyle=orthogonalEdgeStyle;rounded=0;orthogonalLoop=1;jettySize=auto;html=1;exitX=1;exitY=0;exitDx=0;exitDy=0;entryX=0.5;entryY=0;entryDx=0;entryDy=0;dashed=1;endArrow=none;endFill=0;" edge="1" parent="WIyWlLk6GJQsqaUBKTNV-1" source="V3xf2YxD_hksyyZb2QnP-31" target="V3xf2YxD_hksyyZb2QnP-35">
          <mxGeometry relative="1" as="geometry">
            <Array as="points">
              <mxPoint x="516" y="1230" />
              <mxPoint x="516" y="1261" />
            </Array>
          </mxGeometry>
        </mxCell>
        <mxCell id="V3xf2YxD_hksyyZb2QnP-31" value="Car" style="swimlane;fontStyle=1;align=center;verticalAlign=top;childLayout=stackLayout;horizontal=1;startSize=26;horizontalStack=0;resizeParent=1;resizeParentMax=0;resizeLast=0;collapsible=1;marginBottom=0;whiteSpace=wrap;html=1;" vertex="1" parent="WIyWlLk6GJQsqaUBKTNV-1">
          <mxGeometry x="178" y="1260" width="170" height="120" as="geometry" />
        </mxCell>
        <mxCell id="V3xf2YxD_hksyyZb2QnP-33" value="" style="line;strokeWidth=1;fillColor=none;align=left;verticalAlign=middle;spacingTop=-1;spacingLeft=3;spacingRight=3;rotatable=0;labelPosition=right;points=[];portConstraint=eastwest;strokeColor=inherit;" vertex="1" parent="V3xf2YxD_hksyyZb2QnP-31">
          <mxGeometry y="26" width="170" height="44" as="geometry" />
        </mxCell>
        <mxCell id="V3xf2YxD_hksyyZb2QnP-34" value="+ turnOnWindscreenWipers(): void" style="text;strokeColor=none;fillColor=none;align=left;verticalAlign=top;spacingLeft=4;spacingRight=4;overflow=hidden;rotatable=0;points=[[0,0.5],[1,0.5]];portConstraint=eastwest;whiteSpace=wrap;html=1;" vertex="1" parent="V3xf2YxD_hksyyZb2QnP-31">
          <mxGeometry y="70" width="170" height="50" as="geometry" />
        </mxCell>
        <mxCell id="V3xf2YxD_hksyyZb2QnP-35" value="Motorcycle" style="swimlane;fontStyle=1;align=center;verticalAlign=top;childLayout=stackLayout;horizontal=1;startSize=26;horizontalStack=0;resizeParent=1;resizeParentMax=0;resizeLast=0;collapsible=1;marginBottom=0;whiteSpace=wrap;html=1;" vertex="1" parent="WIyWlLk6GJQsqaUBKTNV-1">
          <mxGeometry x="489" y="1260" width="170" height="80" as="geometry" />
        </mxCell>
        <mxCell id="V3xf2YxD_hksyyZb2QnP-36" value="" style="line;strokeWidth=1;fillColor=none;align=left;verticalAlign=middle;spacingTop=-1;spacingLeft=3;spacingRight=3;rotatable=0;labelPosition=right;points=[];portConstraint=eastwest;strokeColor=inherit;" vertex="1" parent="V3xf2YxD_hksyyZb2QnP-35">
          <mxGeometry y="26" width="170" height="54" as="geometry" />
        </mxCell>
        <mxCell id="V3xf2YxD_hksyyZb2QnP-43" value="&lt;p style=&quot;margin:0px;margin-top:4px;text-align:center;&quot;&gt;&lt;i&gt;&amp;lt;&amp;lt;Interface&amp;gt;&amp;gt;&lt;/i&gt;&lt;br&gt;&lt;b&gt;turnOnHeadlights&lt;/b&gt;&lt;/p&gt;&lt;hr size=&quot;1&quot;&gt;&lt;p style=&quot;margin:0px;margin-left:4px;&quot;&gt;&lt;br&gt;&lt;/p&gt;&lt;hr size=&quot;1&quot;&gt;&lt;p style=&quot;margin:0px;margin-left:4px;&quot;&gt;+ turnOnHeadlights(): void&lt;br&gt;&lt;br&gt;&lt;/p&gt;" style="verticalAlign=top;align=left;overflow=fill;fontSize=12;fontFamily=Helvetica;html=1;whiteSpace=wrap;" vertex="1" parent="WIyWlLk6GJQsqaUBKTNV-1">
          <mxGeometry x="333" y="1040" width="190" height="110" as="geometry" />
        </mxCell>
        <mxCell id="V3xf2YxD_hksyyZb2QnP-51" value="Extends" style="endArrow=block;endSize=16;endFill=0;html=1;rounded=0;exitX=0.5;exitY=0;exitDx=0;exitDy=0;" edge="1" parent="WIyWlLk6GJQsqaUBKTNV-1" source="V3xf2YxD_hksyyZb2QnP-31">
          <mxGeometry x="-0.2373" y="31" width="160" relative="1" as="geometry">
            <mxPoint x="188" y="950" as="sourcePoint" />
            <mxPoint x="340" y="950" as="targetPoint" />
            <Array as="points">
              <mxPoint x="263" y="950" />
            </Array>
            <mxPoint x="-1" as="offset" />
          </mxGeometry>
        </mxCell>
        <mxCell id="V3xf2YxD_hksyyZb2QnP-52" value="Extends" style="endArrow=block;endSize=16;endFill=0;html=1;rounded=0;exitX=0.5;exitY=0;exitDx=0;exitDy=0;entryX=1.025;entryY=0.048;entryDx=0;entryDy=0;entryPerimeter=0;" edge="1" parent="WIyWlLk6GJQsqaUBKTNV-1" source="V3xf2YxD_hksyyZb2QnP-35" target="V3xf2YxD_hksyyZb2QnP-28">
          <mxGeometry x="-0.2398" y="-26" width="160" relative="1" as="geometry">
            <mxPoint x="574" y="1230" as="sourcePoint" />
            <mxPoint x="659" y="950" as="targetPoint" />
            <Array as="points">
              <mxPoint x="574" y="950" />
            </Array>
            <mxPoint as="offset" />
          </mxGeometry>
        </mxCell>
        <mxCell id="V3xf2YxD_hksyyZb2QnP-53" value="" style="endArrow=block;dashed=1;endFill=0;endSize=12;html=1;rounded=0;" edge="1" parent="WIyWlLk6GJQsqaUBKTNV-1">
          <mxGeometry width="160" relative="1" as="geometry">
            <mxPoint x="429" y="1230" as="sourcePoint" />
            <mxPoint x="427" y="1150" as="targetPoint" />
          </mxGeometry>
        </mxCell>
        <mxCell id="V3xf2YxD_hksyyZb2QnP-55" value="Exercise Four" style="text;html=1;strokeColor=none;fillColor=none;align=center;verticalAlign=middle;whiteSpace=wrap;rounded=0;" vertex="1" parent="WIyWlLk6GJQsqaUBKTNV-1">
          <mxGeometry x="367" y="1440" width="100" height="30" as="geometry" />
        </mxCell>
        <mxCell id="V3xf2YxD_hksyyZb2QnP-65" value="Course" style="swimlane;fontStyle=0;childLayout=stackLayout;horizontal=1;startSize=26;fillColor=none;horizontalStack=0;resizeParent=1;resizeParentMax=0;resizeLast=0;collapsible=1;marginBottom=0;whiteSpace=wrap;html=1;" vertex="1" parent="WIyWlLk6GJQsqaUBKTNV-1">
          <mxGeometry x="480" y="1480" width="140" height="140" as="geometry" />
        </mxCell>
        <mxCell id="V3xf2YxD_hksyyZb2QnP-66" value="- name: String" style="text;strokeColor=none;fillColor=none;align=left;verticalAlign=top;spacingLeft=4;spacingRight=4;overflow=hidden;rotatable=0;points=[[0,0.5],[1,0.5]];portConstraint=eastwest;whiteSpace=wrap;html=1;" vertex="1" parent="V3xf2YxD_hksyyZb2QnP-65">
          <mxGeometry y="26" width="140" height="26" as="geometry" />
        </mxCell>
        <mxCell id="V3xf2YxD_hksyyZb2QnP-67" value="- courseNum: int" style="text;strokeColor=none;fillColor=none;align=left;verticalAlign=top;spacingLeft=4;spacingRight=4;overflow=hidden;rotatable=0;points=[[0,0.5],[1,0.5]];portConstraint=eastwest;whiteSpace=wrap;html=1;" vertex="1" parent="V3xf2YxD_hksyyZb2QnP-65">
          <mxGeometry y="52" width="140" height="26" as="geometry" />
        </mxCell>
        <mxCell id="V3xf2YxD_hksyyZb2QnP-68" value="- room: int&lt;br&gt;&lt;br&gt;-lecturer(): Lecturer" style="text;strokeColor=none;fillColor=none;align=left;verticalAlign=top;spacingLeft=4;spacingRight=4;overflow=hidden;rotatable=0;points=[[0,0.5],[1,0.5]];portConstraint=eastwest;whiteSpace=wrap;html=1;" vertex="1" parent="V3xf2YxD_hksyyZb2QnP-65">
          <mxGeometry y="78" width="140" height="62" as="geometry" />
        </mxCell>
        <mxCell id="V3xf2YxD_hksyyZb2QnP-69" value="Lecturer" style="swimlane;fontStyle=0;childLayout=stackLayout;horizontal=1;startSize=26;fillColor=none;horizontalStack=0;resizeParent=1;resizeParentMax=0;resizeLast=0;collapsible=1;marginBottom=0;whiteSpace=wrap;html=1;" vertex="1" parent="WIyWlLk6GJQsqaUBKTNV-1">
          <mxGeometry x="220" y="1480" width="140" height="90" as="geometry" />
        </mxCell>
        <mxCell id="V3xf2YxD_hksyyZb2QnP-70" value="- name:String&lt;br&gt;&lt;br&gt;-course(): Course" style="text;strokeColor=none;fillColor=none;align=left;verticalAlign=top;spacingLeft=4;spacingRight=4;overflow=hidden;rotatable=0;points=[[0,0.5],[1,0.5]];portConstraint=eastwest;whiteSpace=wrap;html=1;" vertex="1" parent="V3xf2YxD_hksyyZb2QnP-69">
          <mxGeometry y="26" width="140" height="64" as="geometry" />
        </mxCell>
        <mxCell id="V3xf2YxD_hksyyZb2QnP-73" value="" style="line;strokeWidth=1;fillColor=none;align=left;verticalAlign=middle;spacingTop=-1;spacingLeft=3;spacingRight=3;rotatable=0;labelPosition=right;points=[];portConstraint=eastwest;strokeColor=inherit;" vertex="1" parent="WIyWlLk6GJQsqaUBKTNV-1">
          <mxGeometry x="358" y="1502" width="132" height="8" as="geometry" />
        </mxCell>
        <mxCell id="V3xf2YxD_hksyyZb2QnP-78" value="1" style="text;align=center;fontStyle=1;verticalAlign=middle;spacingLeft=3;spacingRight=3;strokeColor=none;rotatable=0;points=[[0,0.5],[1,0.5]];portConstraint=eastwest;html=1;" vertex="1" parent="WIyWlLk6GJQsqaUBKTNV-1">
          <mxGeometry x="334" y="1500" width="86" height="28" as="geometry" />
        </mxCell>
        <mxCell id="V3xf2YxD_hksyyZb2QnP-79" value="0..*" style="text;align=center;fontStyle=1;verticalAlign=middle;spacingLeft=3;spacingRight=3;strokeColor=none;rotatable=0;points=[[0,0.5],[1,0.5]];portConstraint=eastwest;html=1;" vertex="1" parent="WIyWlLk6GJQsqaUBKTNV-1">
          <mxGeometry x="428" y="1502" width="80" height="26" as="geometry" />
        </mxCell>
        <mxCell id="V3xf2YxD_hksyyZb2QnP-80" value="Library" style="swimlane;fontStyle=0;childLayout=stackLayout;horizontal=1;startSize=26;fillColor=none;horizontalStack=0;resizeParent=1;resizeParentMax=0;resizeLast=0;collapsible=1;marginBottom=0;whiteSpace=wrap;html=1;" vertex="1" parent="WIyWlLk6GJQsqaUBKTNV-1">
          <mxGeometry x="218" y="1630" width="140" height="120" as="geometry" />
        </mxCell>
        <mxCell id="V3xf2YxD_hksyyZb2QnP-81" value="- name:String&lt;br&gt;&lt;br&gt;- location: String&lt;br&gt;&lt;br&gt;-book(): Book" style="text;strokeColor=none;fillColor=none;align=left;verticalAlign=top;spacingLeft=4;spacingRight=4;overflow=hidden;rotatable=0;points=[[0,0.5],[1,0.5]];portConstraint=eastwest;whiteSpace=wrap;html=1;" vertex="1" parent="V3xf2YxD_hksyyZb2QnP-80">
          <mxGeometry y="26" width="140" height="94" as="geometry" />
        </mxCell>
        <mxCell id="V3xf2YxD_hksyyZb2QnP-82" value="Book" style="swimlane;fontStyle=0;childLayout=stackLayout;horizontal=1;startSize=26;fillColor=none;horizontalStack=0;resizeParent=1;resizeParentMax=0;resizeLast=0;collapsible=1;marginBottom=0;whiteSpace=wrap;html=1;" vertex="1" parent="WIyWlLk6GJQsqaUBKTNV-1">
          <mxGeometry x="480" y="1630" width="140" height="120" as="geometry" />
        </mxCell>
        <mxCell id="V3xf2YxD_hksyyZb2QnP-83" value="- name: String" style="text;strokeColor=none;fillColor=none;align=left;verticalAlign=top;spacingLeft=4;spacingRight=4;overflow=hidden;rotatable=0;points=[[0,0.5],[1,0.5]];portConstraint=eastwest;whiteSpace=wrap;html=1;" vertex="1" parent="V3xf2YxD_hksyyZb2QnP-82">
          <mxGeometry y="26" width="140" height="26" as="geometry" />
        </mxCell>
        <mxCell id="V3xf2YxD_hksyyZb2QnP-84" value="-&amp;nbsp;genre: String" style="text;strokeColor=none;fillColor=none;align=left;verticalAlign=top;spacingLeft=4;spacingRight=4;overflow=hidden;rotatable=0;points=[[0,0.5],[1,0.5]];portConstraint=eastwest;whiteSpace=wrap;html=1;" vertex="1" parent="V3xf2YxD_hksyyZb2QnP-82">
          <mxGeometry y="52" width="140" height="26" as="geometry" />
        </mxCell>
        <mxCell id="V3xf2YxD_hksyyZb2QnP-85" value="- library(): Library" style="text;strokeColor=none;fillColor=none;align=left;verticalAlign=top;spacingLeft=4;spacingRight=4;overflow=hidden;rotatable=0;points=[[0,0.5],[1,0.5]];portConstraint=eastwest;whiteSpace=wrap;html=1;" vertex="1" parent="V3xf2YxD_hksyyZb2QnP-82">
          <mxGeometry y="78" width="140" height="42" as="geometry" />
        </mxCell>
        <mxCell id="V3xf2YxD_hksyyZb2QnP-90" value="1" style="endArrow=open;html=1;endSize=12;startArrow=diamondThin;startSize=14;startFill=1;edgeStyle=orthogonalEdgeStyle;align=left;verticalAlign=bottom;rounded=0;" edge="1" parent="WIyWlLk6GJQsqaUBKTNV-1">
          <mxGeometry x="-1" y="3" relative="1" as="geometry">
            <mxPoint x="352" y="1700" as="sourcePoint" />
            <mxPoint x="482" y="1700" as="targetPoint" />
          </mxGeometry>
        </mxCell>
        <mxCell id="V3xf2YxD_hksyyZb2QnP-92" value="1000..*" style="text;html=1;align=center;verticalAlign=middle;resizable=0;points=[];autosize=1;strokeColor=none;fillColor=none;" vertex="1" parent="WIyWlLk6GJQsqaUBKTNV-1">
          <mxGeometry x="429" y="1670" width="60" height="30" as="geometry" />
        </mxCell>
        <mxCell id="V3xf2YxD_hksyyZb2QnP-94" value="teaches" style="text;html=1;strokeColor=none;fillColor=none;align=center;verticalAlign=middle;whiteSpace=wrap;rounded=0;" vertex="1" parent="WIyWlLk6GJQsqaUBKTNV-1">
          <mxGeometry x="386.5" y="1510" width="60" height="30" as="geometry" />
        </mxCell>
        <mxCell id="V3xf2YxD_hksyyZb2QnP-95" value="Exercise Five" style="text;html=1;strokeColor=none;fillColor=none;align=center;verticalAlign=middle;whiteSpace=wrap;rounded=0;" vertex="1" parent="WIyWlLk6GJQsqaUBKTNV-1">
          <mxGeometry x="370.5" y="1800" width="93" height="30" as="geometry" />
        </mxCell>
        <mxCell id="V3xf2YxD_hksyyZb2QnP-97" value="Bob: User" style="shape=umlLifeline;perimeter=lifelinePerimeter;whiteSpace=wrap;html=1;container=1;dropTarget=0;collapsible=0;recursiveResize=0;outlineConnect=0;portConstraint=eastwest;newEdgeStyle={&quot;curved&quot;:0,&quot;rounded&quot;:0};" vertex="1" parent="WIyWlLk6GJQsqaUBKTNV-1">
          <mxGeometry x="70" y="1845" width="100" height="435" as="geometry" />
        </mxCell>
        <mxCell id="V3xf2YxD_hksyyZb2QnP-98" value="Charlotte: User" style="shape=umlLifeline;perimeter=lifelinePerimeter;whiteSpace=wrap;html=1;container=1;dropTarget=0;collapsible=0;recursiveResize=0;outlineConnect=0;portConstraint=eastwest;newEdgeStyle={&quot;curved&quot;:0,&quot;rounded&quot;:0};" vertex="1" parent="WIyWlLk6GJQsqaUBKTNV-1">
          <mxGeometry x="423" y="1845" width="100" height="435" as="geometry" />
        </mxCell>
        <mxCell id="V3xf2YxD_hksyyZb2QnP-99" value="reqPay($100)" style="html=1;verticalAlign=bottom;endArrow=block;curved=0;rounded=0;" edge="1" parent="WIyWlLk6GJQsqaUBKTNV-1" target="V3xf2YxD_hksyyZb2QnP-101">
          <mxGeometry width="80" relative="1" as="geometry">
            <mxPoint x="119.5" y="1930" as="sourcePoint" />
            <mxPoint x="340" y="1930" as="targetPoint" />
          </mxGeometry>
        </mxCell>
        <mxCell id="V3xf2YxD_hksyyZb2QnP-100" value=":bankAccount" style="shape=umlLifeline;perimeter=lifelinePerimeter;whiteSpace=wrap;html=1;container=1;dropTarget=0;collapsible=0;recursiveResize=0;outlineConnect=0;portConstraint=eastwest;newEdgeStyle={&quot;curved&quot;:0,&quot;rounded&quot;:0};" vertex="1" parent="WIyWlLk6GJQsqaUBKTNV-1">
          <mxGeometry x="189" y="1845" width="100" height="430" as="geometry" />
        </mxCell>
        <mxCell id="V3xf2YxD_hksyyZb2QnP-101" value="" style="html=1;points=[[0,0,0,0,5],[0,1,0,0,-5],[1,0,0,0,5],[1,1,0,0,-5]];perimeter=orthogonalPerimeter;outlineConnect=0;targetShapes=umlLifeline;portConstraint=eastwest;newEdgeStyle={&quot;curved&quot;:0,&quot;rounded&quot;:0};" vertex="1" parent="V3xf2YxD_hksyyZb2QnP-100">
          <mxGeometry x="45" y="80" width="10" height="350" as="geometry" />
        </mxCell>
        <mxCell id="V3xf2YxD_hksyyZb2QnP-105" value="balance:Money" style="shape=umlLifeline;perimeter=lifelinePerimeter;whiteSpace=wrap;html=1;container=1;dropTarget=0;collapsible=0;recursiveResize=0;outlineConnect=0;portConstraint=eastwest;newEdgeStyle={&quot;curved&quot;:0,&quot;rounded&quot;:0};" vertex="1" parent="WIyWlLk6GJQsqaUBKTNV-1">
          <mxGeometry x="314" y="1845" width="100" height="430" as="geometry" />
        </mxCell>
        <mxCell id="V3xf2YxD_hksyyZb2QnP-117" value="" style="html=1;points=[[0,0,0,0,5],[0,1,0,0,-5],[1,0,0,0,5],[1,1,0,0,-5]];perimeter=orthogonalPerimeter;outlineConnect=0;targetShapes=umlLifeline;portConstraint=eastwest;newEdgeStyle={&quot;curved&quot;:0,&quot;rounded&quot;:0};" vertex="1" parent="V3xf2YxD_hksyyZb2QnP-105">
          <mxGeometry x="45" y="90" width="10" height="340" as="geometry" />
        </mxCell>
        <mxCell id="V3xf2YxD_hksyyZb2QnP-106" value="minus（$100）" style="html=1;verticalAlign=bottom;endArrow=block;curved=0;rounded=0;" edge="1" parent="WIyWlLk6GJQsqaUBKTNV-1">
          <mxGeometry width="80" relative="1" as="geometry">
            <mxPoint x="249" y="1990" as="sourcePoint" />
            <mxPoint x="360" y="1990" as="targetPoint" />
          </mxGeometry>
        </mxCell>
        <mxCell id="V3xf2YxD_hksyyZb2QnP-107" value="Dave:User" style="shape=umlLifeline;perimeter=lifelinePerimeter;whiteSpace=wrap;html=1;container=1;dropTarget=0;collapsible=0;recursiveResize=0;outlineConnect=0;portConstraint=eastwest;newEdgeStyle={&quot;curved&quot;:0,&quot;rounded&quot;:0};" vertex="1" parent="WIyWlLk6GJQsqaUBKTNV-1">
          <mxGeometry x="540" y="1845" width="100" height="425" as="geometry" />
        </mxCell>
        <mxCell id="V3xf2YxD_hksyyZb2QnP-108" value="valid" style="html=1;verticalAlign=bottom;endArrow=open;dashed=1;endSize=8;curved=0;rounded=0;" edge="1" parent="WIyWlLk6GJQsqaUBKTNV-1">
          <mxGeometry relative="1" as="geometry">
            <mxPoint x="467" y="2062" as="sourcePoint" />
            <mxPoint x="369" y="2062.5" as="targetPoint" />
          </mxGeometry>
        </mxCell>
        <mxCell id="V3xf2YxD_hksyyZb2QnP-109" value="pay($100)" style="html=1;verticalAlign=bottom;endArrow=block;curved=0;rounded=0;" edge="1" parent="WIyWlLk6GJQsqaUBKTNV-1">
          <mxGeometry width="80" relative="1" as="geometry">
            <mxPoint x="250.25" y="2040" as="sourcePoint" />
            <mxPoint x="470" y="2040" as="targetPoint" />
            <Array as="points">
              <mxPoint x="430.25" y="2040" />
            </Array>
          </mxGeometry>
        </mxCell>
        <mxCell id="V3xf2YxD_hksyyZb2QnP-110" value="reqPay($250)" style="html=1;verticalAlign=bottom;endArrow=block;curved=0;rounded=0;" edge="1" parent="WIyWlLk6GJQsqaUBKTNV-1">
          <mxGeometry width="80" relative="1" as="geometry">
            <mxPoint x="120.5" y="2120" as="sourcePoint" />
            <mxPoint x="240" y="2120" as="targetPoint" />
          </mxGeometry>
        </mxCell>
        <mxCell id="V3xf2YxD_hksyyZb2QnP-112" value="ok" style="html=1;verticalAlign=bottom;endArrow=open;dashed=1;endSize=8;curved=0;rounded=0;" edge="1" parent="WIyWlLk6GJQsqaUBKTNV-1" target="V3xf2YxD_hksyyZb2QnP-97">
          <mxGeometry relative="1" as="geometry">
            <mxPoint x="360" y="2080" as="sourcePoint" />
            <mxPoint x="137" y="2080" as="targetPoint" />
          </mxGeometry>
        </mxCell>
        <mxCell id="V3xf2YxD_hksyyZb2QnP-113" value="false" style="html=1;verticalAlign=bottom;endArrow=open;dashed=1;endSize=8;curved=0;rounded=0;" edge="1" parent="WIyWlLk6GJQsqaUBKTNV-1">
          <mxGeometry relative="1" as="geometry">
            <mxPoint x="230" y="2190" as="sourcePoint" />
            <mxPoint x="119" y="2190" as="targetPoint" />
          </mxGeometry>
        </mxCell>
        <mxCell id="V3xf2YxD_hksyyZb2QnP-114" value="balance" style="html=1;verticalAlign=bottom;endArrow=open;dashed=1;endSize=8;curved=0;rounded=0;" edge="1" parent="WIyWlLk6GJQsqaUBKTNV-1">
          <mxGeometry relative="1" as="geometry">
            <mxPoint x="358" y="2010" as="sourcePoint" />
            <mxPoint x="247.5" y="2010" as="targetPoint" />
          </mxGeometry>
        </mxCell>
        <mxCell id="V3xf2YxD_hksyyZb2QnP-115" value="Exercise Six" style="text;html=1;strokeColor=none;fillColor=none;align=center;verticalAlign=middle;whiteSpace=wrap;rounded=0;" vertex="1" parent="WIyWlLk6GJQsqaUBKTNV-1">
          <mxGeometry x="330" y="2380" width="149.5" height="30" as="geometry" />
        </mxCell>
        <mxCell id="V3xf2YxD_hksyyZb2QnP-116" value="(A)&lt;br&gt;1. Port and Journey; Journey and Vessel;&amp;nbsp;&lt;br&gt;2. Vessel and Captain&lt;br&gt;3.Crane and Port&lt;br&gt;4.OliTanker and ContainerShip&lt;br&gt;5.Cruise Ship, OliTanker, ContainerShip&lt;br&gt;6.oil&lt;br&gt;7.Each Journey has one Port and one port can have 0 or more Journey&lt;br&gt;8. int&amp;nbsp;&lt;br&gt;&lt;br&gt;(B)&lt;br&gt;First, user insert his card into ATM, and ATM asks user for entering Pin;&lt;br&gt;Second, user types in Pin and ATM verify the pin is valid or not with bank, and ATM reminds user that is processing;&lt;br&gt;Thirdly, after bank verifying the Pin is valid, the ATM reacts to user that is ok;&lt;br&gt;Fourthly, user withdraw 100$ with ATM, and ATM deduct 100$ from bank;&lt;br&gt;Finally, bank makes sure that is ok, user gets 100$ from ATM" style="text;html=1;strokeColor=none;fillColor=none;align=center;verticalAlign=middle;whiteSpace=wrap;rounded=0;" vertex="1" parent="WIyWlLk6GJQsqaUBKTNV-1">
          <mxGeometry x="189" y="2429" width="423" height="410" as="geometry" />
        </mxCell>
        <mxCell id="V3xf2YxD_hksyyZb2QnP-104" value="calculate(balance)" style="html=1;verticalAlign=bottom;endArrow=block;curved=0;rounded=0;" edge="1" parent="WIyWlLk6GJQsqaUBKTNV-1">
          <mxGeometry width="80" relative="1" as="geometry">
            <mxPoint x="250" y="1940" as="sourcePoint" />
            <mxPoint x="360" y="1940" as="targetPoint" />
          </mxGeometry>
        </mxCell>
        <mxCell id="V3xf2YxD_hksyyZb2QnP-118" value="enough" style="html=1;verticalAlign=bottom;endArrow=open;dashed=1;endSize=8;curved=0;rounded=0;" edge="1" parent="WIyWlLk6GJQsqaUBKTNV-1">
          <mxGeometry relative="1" as="geometry">
            <mxPoint x="349" y="1960" as="sourcePoint" />
            <mxPoint x="238" y="1960" as="targetPoint" />
          </mxGeometry>
        </mxCell>
        <mxCell id="V3xf2YxD_hksyyZb2QnP-119" value="calculate(balance)" style="html=1;verticalAlign=bottom;endArrow=block;curved=0;rounded=0;" edge="1" parent="WIyWlLk6GJQsqaUBKTNV-1">
          <mxGeometry width="80" relative="1" as="geometry">
            <mxPoint x="248" y="2140" as="sourcePoint" />
            <mxPoint x="358" y="2140" as="targetPoint" />
          </mxGeometry>
        </mxCell>
        <mxCell id="V3xf2YxD_hksyyZb2QnP-120" value="notEnough" style="html=1;verticalAlign=bottom;endArrow=open;dashed=1;endSize=8;curved=0;rounded=0;" edge="1" parent="WIyWlLk6GJQsqaUBKTNV-1">
          <mxGeometry relative="1" as="geometry">
            <mxPoint x="358" y="2170" as="sourcePoint" />
            <mxPoint x="247" y="2170" as="targetPoint" />
          </mxGeometry>
        </mxCell>
      </root>
    </mxGraphModel>
  </diagram>
</mxfile>
